<svg width="24" height="24" viewBox="0 0 24 24" fill="none" xmlns="http://www.w3.org/2000/svg">
<path d="M8 22L7.29289 22.7071L8 23.4142L8.70711 22.7071L8 22ZM9 3C9 2.44772 8.55228 2 8 2C7.44771 2 7 2.44772 7 3L9 3ZM3.29289 18.7071L7.29289 22.7071L8.70711 21.2929L4.70711 17.2929L3.29289 18.7071ZM8.70711 22.7071L12.7071 18.7071L11.2929 17.2929L7.29289 21.2929L8.70711 22.7071ZM9 22L9 3L7 3L7 22L9 22Z" fill="#CECECE"/>
<path d="M16 2L15.2929 1.29289L16 0.585786L16.7071 1.29289L16 2ZM17 11C17 11.5523 16.5523 12 16 12C15.4477 12 15 11.5523 15 11L17 11ZM11.2929 5.29289L15.2929 1.29289L16.7071 2.70711L12.7071 6.70711L11.2929 5.29289ZM16.7071 1.29289L20.7071 5.29289L19.2929 6.70711L15.2929 2.70711L16.7071 1.29289ZM17 2L17 11L15 11L15 2L17 2Z" fill="#CCD2E3"/>
</svg>
