<svg width="26" height="26" viewBox="0 0 26 26" fill="none" xmlns="http://www.w3.org/2000/svg">
<path d="M13.9592 11.3992C13.3192 11.2392 12.6792 10.9192 12.1992 10.4392C11.7192 10.2792 11.5592 9.79922 11.5592 9.47922C11.5592 9.15922 11.7192 8.67922 12.0392 8.51922C12.5192 8.19922 12.9992 7.87922 13.4792 8.03922C14.4392 8.03922 15.2392 8.51922 15.7192 9.15922L17.1592 7.23922C16.6792 6.75922 16.1992 6.43922 15.7192 6.11922C15.2392 5.79922 14.5992 5.63922 13.9592 5.63922V3.39922H12.0392V5.63922C11.2392 5.79922 10.4392 6.27922 9.79922 6.91922C9.15922 7.71922 8.67922 8.67922 8.83922 9.63922C8.83922 10.5992 9.15922 11.5592 9.79922 12.1992C10.5992 12.9992 11.7192 13.4792 12.6792 13.9592C13.1592 14.1192 13.7992 14.4392 14.2792 14.7592C14.5992 15.0792 14.7592 15.5592 14.7592 16.0392C14.7592 16.5192 14.5992 16.9992 14.2792 17.4792C13.7992 17.9592 13.1592 18.1192 12.6792 18.1192C12.0392 18.1192 11.2392 17.9592 10.7592 17.4792C10.2792 17.1592 9.79922 16.6792 9.47922 16.1992L7.87922 17.9592C8.35922 18.5992 8.83922 19.0792 9.47922 19.5592C10.2792 20.0392 11.2392 20.5192 12.1992 20.5192V22.5992H13.9592V20.1992C14.9192 20.0392 15.7192 19.5592 16.3592 18.9192C17.1592 18.1192 17.6392 16.8392 17.6392 15.7192C17.6392 14.7592 17.3192 13.6392 16.5192 12.9992C15.7192 12.1992 14.9192 11.7192 13.9592 11.3992ZM12.9992 0.199219C5.95922 0.199219 0.199219 5.95922 0.199219 12.9992C0.199219 20.0392 5.95922 25.7992 12.9992 25.7992C20.0392 25.7992 25.7992 20.0392 25.7992 12.9992C25.7992 5.95922 20.0392 0.199219 12.9992 0.199219ZM12.9992 24.0392C6.91922 24.0392 1.95922 19.0792 1.95922 12.9992C1.95922 6.91922 6.91922 1.95922 12.9992 1.95922C19.0792 1.95922 24.0392 6.91922 24.0392 12.9992C24.0392 19.0792 19.0792 24.0392 12.9992 24.0392Z" fill="black"/>
</svg>
