<svg width="24" height="24" viewBox="0 0 24 24" fill="none" xmlns="http://www.w3.org/2000/svg">
<circle cx="12" cy="12" r="12" fill="url(#paint0_linear_8623_10532)"/>
<path d="M6.77225 13.2871C6.29692 12.4949 6.29692 11.5051 6.77225 10.7129C6.9173 10.4712 7.15761 10.3018 7.43406 10.2465L8.56275 10.0208C8.62999 10.0073 8.69061 9.97127 8.73451 9.91859L9.17085 9.39498C10.3534 7.97592 10.9447 7.26638 11.4723 7.45742C12 7.64846 12 8.57207 12 10.4193L12 13.5807C12 15.4279 12 16.3515 11.4723 16.5426C10.9447 16.7336 10.3534 16.0241 9.17085 14.605L8.73451 14.0814C8.69061 14.0287 8.63 13.9927 8.56275 13.9792L7.43407 13.7535C7.15761 13.6982 6.9173 13.5288 6.77225 13.2871Z" fill="white"/>
<path d="M13.6904 9.64233C14.3123 10.2642 14.6632 11.1067 14.6666 11.9862C14.6701 12.8657 14.3258 13.7109 13.7089 14.3377" stroke="white" stroke-width="2" stroke-linecap="round"/>
<path d="M16.4378 8.22811C17.4329 9.22316 17.9943 10.5711 17.9999 11.9783C18.0054 13.3855 17.4546 14.7379 16.4674 15.7408" stroke="white" stroke-width="2" stroke-linecap="round"/>
<defs>
<linearGradient id="paint0_linear_8623_10532" x1="12" y1="0" x2="12" y2="24" gradientUnits="userSpaceOnUse">
<stop stop-color="#557CE0"/>
<stop offset="1" stop-color="#1E50A6"/>
</linearGradient>
</defs>
</svg>
