<svg width="373" height="65" viewBox="0 0 373 65" fill="none" xmlns="http://www.w3.org/2000/svg">
<g filter="url(#filter0_d_2684_8029)">
<path d="M28.2484 1.22848C28.0184 0.698476 27.5684 0.298476 26.8484 0.098475C26.1384 -0.0915258 25.1684 -0.0215264 24.0684 0.468473C22.9784 0.958472 21.7884 1.96848 20.9484 3.42847C20.0984 4.87847 19.6784 6.73847 19.8084 8.54847C19.8484 9.46847 20.1184 10.6185 20.5984 11.8285C21.0884 13.0485 21.8384 14.3085 22.8184 15.4385C23.7984 16.5685 24.9884 17.5785 26.2784 18.3785C27.5684 19.1785 28.9584 19.7785 30.3084 20.1785C31.6684 20.5585 32.9884 20.7585 34.1884 20.8385C34.7884 20.8585 35.3584 20.8685 35.8884 20.8485C36.4184 20.8085 36.9084 20.7785 37.3584 20.7185C37.8084 20.6485 38.2084 20.5785 38.5584 20.4985C38.9084 20.4185 39.2084 20.3185 39.4484 20.2385C39.9384 20.0685 40.1984 19.9085 40.1984 19.7685C40.1984 19.6485 39.9384 19.4885 39.4784 19.2985C38.9684 19.0985 38.3284 18.8485 37.6084 18.5685C37.2284 18.4185 36.8184 18.2285 36.3884 18.0485C35.9684 17.8485 35.5284 17.6285 35.0784 17.3985C34.1884 16.9185 33.2884 16.3485 32.4484 15.6985C31.6284 15.0385 30.8784 14.2985 30.2684 13.5285C29.6584 12.7585 29.1984 11.9685 28.8784 11.2285C28.5584 10.4885 28.3884 9.81848 28.3084 9.26848C28.2684 9.12848 28.2784 8.99847 28.2584 8.87847C28.2384 8.75847 28.2184 8.63847 28.2284 8.53847C28.2284 8.42847 28.2184 8.33848 28.1984 8.23847C28.1984 8.14847 28.1984 8.06847 28.1884 7.98847C28.1484 7.37848 28.1084 6.88847 28.0884 6.39847C28.0684 5.90847 28.0484 5.37847 28.1284 4.78847C28.2584 3.62847 28.7184 2.30848 28.2484 1.22848Z" fill="#365A97"/>
<path d="M18.4875 19.4681C25.8975 22.7281 36.2875 23.6081 37.6575 23.7081C37.7475 23.7181 37.8075 23.7681 37.8075 23.8281L41.4175 27.0181C41.8975 27.4381 41.8975 28.1881 41.4175 28.6081L37.8075 31.7981C37.8075 31.8581 37.7475 31.9081 37.6575 31.9181C36.2875 32.0181 26.6975 32.7581 18.4875 36.1581C18.4275 36.1881 6.6475 29.5981 4.1875 28.1181C3.9375 27.9681 3.9375 27.6781 4.1875 27.5281C6.6475 26.0281 18.4275 19.4381 18.4875 19.4681Z" fill="#365A97"/>
<path d="M28.2484 54.8077C28.0184 55.3377 27.5684 55.7377 26.8484 55.9377C26.1384 56.1277 25.1684 56.0577 24.0684 55.5677C22.9784 55.0777 21.7884 54.0677 20.9484 52.6077C20.0984 51.1577 19.6784 49.2977 19.8084 47.4877C19.8484 46.5677 20.1184 45.4177 20.5984 44.2077C21.0884 42.9877 21.8384 41.7277 22.8184 40.5977C23.7984 39.4677 24.9884 38.4577 26.2784 37.6577C27.5684 36.8577 28.9584 36.2577 30.3084 35.8577C31.6684 35.4777 32.9884 35.2677 34.1884 35.1977C34.7884 35.1777 35.3584 35.1677 35.8884 35.1877C36.4184 35.2277 36.9084 35.2578 37.3584 35.3178C37.8084 35.3878 38.2084 35.4577 38.5584 35.5377C38.9084 35.6177 39.2084 35.7178 39.4484 35.7978C39.9384 35.9678 40.1984 36.1278 40.1984 36.2677C40.1984 36.3878 39.9384 36.5477 39.4784 36.7377C38.9684 36.9377 38.3284 37.1877 37.6084 37.4677C37.2284 37.6177 36.8184 37.8077 36.3884 37.9877C35.9684 38.1877 35.5284 38.4078 35.0784 38.6377C34.1884 39.1177 33.2884 39.6877 32.4484 40.3377C31.6284 40.9977 30.8784 41.7377 30.2684 42.5077C29.6584 43.2777 29.1984 44.0677 28.8784 44.8077C28.5584 45.5477 28.3884 46.2177 28.3084 46.7677C28.2684 46.9077 28.2784 47.0377 28.2584 47.1577C28.2384 47.2777 28.2184 47.3977 28.2284 47.4977C28.2284 47.6077 28.2184 47.6977 28.1984 47.7977C28.1984 47.8877 28.1984 47.9677 28.1884 48.0477C28.1484 48.6577 28.1084 49.1477 28.0884 49.6377C28.0684 50.1277 28.0484 50.6577 28.1284 51.2477C28.2584 52.4077 28.7184 53.7277 28.2484 54.8077Z" fill="#365A97"/>
<path d="M44.2784 27.8776C44.2784 27.8776 56.8784 33.8176 56.8984 27.8776C56.9284 21.8076 43.5284 27.5276 44.2784 27.8776Z" fill="#365A97"/>
<path d="M44.3077 24.6482C44.3077 24.6482 53.9677 20.6782 50.6977 17.6682C47.3577 14.5882 43.7377 24.8882 44.3077 24.6482Z" fill="#365A97"/>
<path d="M44.6766 31.0971C44.6766 31.0971 46.3766 41.3971 50.0466 38.8871C53.7966 36.3171 44.5766 30.4771 44.6766 31.0971Z" fill="#365A97"/>
</g>
<g filter="url(#filter1_d_2684_8029)">
<path fill-rule="evenodd" clip-rule="evenodd" d="M64.621 28.6949C64.351 28.0684 64.141 27.3832 64.041 26.6392C63.971 25.8953 63.991 25.0975 64.121 24.2557C64.1613 24.116 64.1993 23.9746 64.2378 23.8318C64.3138 23.5493 64.3914 23.261 64.491 22.9684C64.541 22.8583 64.5935 22.7482 64.646 22.6381C64.6985 22.5279 64.751 22.4178 64.801 22.3077C64.826 22.2514 64.8535 22.1951 64.881 22.1388C64.9085 22.0825 64.936 22.0263 64.961 21.97C64.9767 21.9404 64.9918 21.9104 65.0069 21.8804C65.0493 21.7963 65.092 21.7116 65.151 21.6322C66.231 19.8409 68.231 17.9859 71.171 16.3659C71.551 16.1701 71.931 15.9743 72.321 15.7786C72.3676 15.7545 72.4142 15.7299 72.4612 15.7051C72.6055 15.629 72.7525 15.5513 72.911 15.4849C73.121 15.3968 73.331 15.3038 73.541 15.2108C73.6719 15.1543 73.8018 15.0965 73.9323 15.0384C74.2204 14.91 74.5112 14.7805 74.821 14.6626L74.8224 14.6621C75.2719 14.4909 75.7215 14.3198 76.181 14.1487C76.4972 14.0249 76.8331 13.9156 77.1715 13.8055C77.3146 13.7589 77.4583 13.7122 77.601 13.6642C77.851 13.5859 78.091 13.5076 78.331 13.4292C78.571 13.346 78.811 13.2677 79.071 13.1992C79.2536 13.1474 79.4375 13.0955 79.6223 13.0434C79.9435 12.9529 80.2672 12.8617 80.591 12.7685C80.841 12.6951 81.111 12.6266 81.371 12.5629L82.161 12.3671C85.271 11.6036 88.461 11.0261 91.581 10.5856C94.701 10.15 97.771 9.83184 100.701 9.61648C103.641 9.40113 106.441 9.27388 109.061 9.19557C111.691 9.13194 114.131 9.11237 116.361 9.13684C120.821 9.18089 124.401 9.37177 126.861 9.52839C127.471 9.56754 128.021 9.60669 128.491 9.64095C128.604 9.65039 128.714 9.65955 128.819 9.66835C129.149 9.69606 129.438 9.72027 129.681 9.73884C130.321 9.79268 130.661 9.82204 130.661 9.82204C130.661 9.82204 130.321 9.81716 129.671 9.80738C129.351 9.80248 128.951 9.7976 128.471 9.78781C128.001 9.78291 127.451 9.77801 126.831 9.77311C124.361 9.76332 120.791 9.77801 116.411 9.92973C114.221 10.0031 111.831 10.1206 109.281 10.2723C106.731 10.4388 104.021 10.6541 101.201 10.9331C98.381 11.2121 95.461 11.5791 92.501 12.0392C89.551 12.5042 86.551 13.067 83.641 13.7865L82.901 13.9676C82.651 14.0263 82.401 14.09 82.171 14.1585C81.691 14.2907 81.221 14.4228 80.751 14.555C80.511 14.6186 80.281 14.6871 80.061 14.7605L79.391 14.9759C79.2657 15.0163 79.1381 15.0559 79.01 15.0956C78.6883 15.1954 78.3643 15.2959 78.071 15.4115C77.641 15.5632 77.221 15.7149 76.801 15.8667C76.539 15.9636 76.2893 16.0685 76.0388 16.1738C75.8972 16.2333 75.7554 16.2929 75.611 16.3512C75.5475 16.3776 75.4851 16.404 75.423 16.4302C75.2894 16.4867 75.1576 16.5424 75.021 16.5959C74.9043 16.6416 74.8013 16.6923 74.6979 16.7431C74.6241 16.7794 74.5501 16.8158 74.471 16.8504L73.391 17.3643C70.631 18.7788 68.651 20.3891 67.431 21.9993C66.211 23.6096 65.741 25.215 65.611 26.6197C65.561 27.3244 65.631 27.9852 65.761 28.5921C65.787 28.6798 65.8105 28.7663 65.8337 28.8515C65.8907 29.0613 65.9456 29.2636 66.031 29.4584C66.091 29.5955 66.141 29.7276 66.191 29.8598C66.2253 29.9326 66.2629 30.0054 66.3001 30.0773C66.3278 30.1311 66.3553 30.1843 66.381 30.2366C66.4962 30.3991 66.6435 30.5616 66.795 30.7287C66.867 30.8082 66.9401 30.8887 67.011 30.9708C67.0774 31.0412 67.1499 31.1102 67.2235 31.1801C67.2829 31.2365 67.3429 31.2936 67.401 31.3526C67.4406 31.3946 67.4847 31.4367 67.5302 31.4801C67.5535 31.5024 67.5772 31.5251 67.601 31.5483C67.641 31.5801 67.6785 31.6132 67.716 31.6462C67.7535 31.6793 67.791 31.7123 67.831 31.7441C68.431 32.2776 69.191 32.8209 70.111 33.3544C71.951 34.4262 74.471 35.4443 77.621 36.1931C78.661 36.4427 79.761 36.663 80.911 36.849C80.681 36.4672 80.511 36.0708 80.411 35.6596C80.191 34.7982 80.331 33.8732 80.891 33.0069C81.451 32.1406 82.411 31.3526 83.551 30.682C84.691 30.0017 86.021 29.4437 87.401 28.9543C90.191 27.9803 93.211 27.2755 96.311 26.6833C99.411 26.096 102.601 25.6359 105.841 25.2443C112.321 24.471 119.001 23.9669 125.801 23.6096C128.301 23.4824 130.791 23.3747 133.261 23.2817C133.856 23.2604 134.45 23.2402 135.043 23.2201C135.678 23.1986 136.311 23.1772 136.941 23.1544L137.079 23.1499C138.222 23.1119 139.469 23.0705 140.671 23.0516C145.691 22.9684 150.611 23.13 155.401 23.4922L155.405 23.4925C155.964 23.5364 156.522 23.5804 157.071 23.6292C159.621 22.7433 162.091 21.9015 164.451 21.1135C166.249 20.5207 167.975 19.9543 169.62 19.4142L169.901 19.3221C171.61 18.7947 173.234 18.2903 174.754 17.8179L174.891 17.7755C175.278 17.6541 175.655 17.5375 176.032 17.4209L176.041 17.4182C176.136 17.3889 176.228 17.3607 176.321 17.3326C176.413 17.3045 176.506 17.2763 176.601 17.2469L177.171 17.0854C177.384 17.0256 177.595 16.9666 177.803 16.9083C178.328 16.7613 178.837 16.6186 179.331 16.4785C180.377 16.1722 181.393 15.9201 182.331 15.6873C182.623 15.615 182.906 15.5447 183.181 15.4751C183.365 15.4188 183.551 15.361 183.74 15.3022C184.126 15.1821 184.525 15.0583 184.941 14.9367C185.476 14.7911 186.041 14.6349 186.622 14.4742L186.931 14.3885C187.076 14.3484 187.222 14.3077 187.37 14.2665C187.926 14.1117 188.503 13.951 189.111 13.7963C189.871 13.6079 190.67 13.4146 191.489 13.2166L191.521 13.209L191.525 13.2081C191.944 13.1056 192.362 13.0031 192.791 12.9007C193.086 12.8269 193.395 12.7622 193.705 12.6974C193.847 12.6676 193.989 12.6378 194.131 12.607C194.314 12.5687 194.497 12.5302 194.682 12.4914C195.419 12.3371 196.174 12.1791 196.941 12.0148C197.574 11.887 198.229 11.7696 198.894 11.6504C199.247 11.587 199.603 11.5231 199.961 11.4568C200.176 11.4175 200.395 11.3782 200.616 11.3386C200.919 11.2844 201.225 11.2295 201.531 11.1729C201.945 11.1016 202.365 11.0389 202.787 10.976C202.915 10.9569 203.043 10.9378 203.171 10.9184C207.561 10.2087 212.501 9.66054 217.791 9.33751C223.081 9.01448 228.751 8.93127 234.551 9.18089C235.502 9.23796 236.453 9.2911 237.396 9.34384L237.721 9.36198C237.893 9.3731 238.064 9.38268 238.234 9.39222C238.589 9.41205 238.94 9.43172 239.291 9.46477C239.734 9.5065 240.178 9.54469 240.615 9.58234L240.841 9.60183C241.235 9.63775 241.629 9.67221 242.022 9.70662C242.647 9.76129 243.271 9.81583 243.891 9.87592C244.891 9.99338 245.881 10.1108 246.861 10.2283C247.351 10.287 247.831 10.3458 248.321 10.4045C248.687 10.4447 249.052 10.4984 249.413 10.5516C249.536 10.5697 249.659 10.5878 249.781 10.6052C250.016 10.6443 250.254 10.6823 250.491 10.7202C250.729 10.7581 250.966 10.7961 251.201 10.8352C251.671 10.9135 252.131 10.9918 252.591 11.0799C254.421 11.4225 256.161 11.7994 257.831 12.2057C262.271 13.2922 266.141 14.5354 269.391 15.8324C271.231 16.224 273.011 16.6742 274.731 17.1979C279.161 18.5341 283.061 20.4381 285.351 22.7531C286.291 23.6816 286.949 24.6647 287.383 25.6503L296.931 25.6503C296.556 25.3919 296.327 25.0991 296.291 24.7884C296.251 24.5731 296.331 24.3626 296.471 24.162C296.601 23.9613 296.841 23.7704 297.121 23.5942C297.691 23.2418 298.541 22.9432 299.551 22.8258C300.581 22.7083 301.591 22.816 302.421 23.1292C302.841 23.2858 303.161 23.4914 303.431 23.7313C303.691 23.9711 303.841 24.2501 303.891 24.5486C303.939 24.9556 303.751 25.3371 303.395 25.6503L365.25 25.6504C365.415 24.7299 366.161 24.0352 367.057 24.0352C368.074 24.0352 368.898 24.9306 368.898 26.0352C368.898 27.1397 368.074 28.0352 367.057 28.0352C366.238 28.0352 365.543 27.4539 365.304 26.6504L287.734 26.6503C288.02 27.7827 288.101 28.9483 287.661 30.0605C287.221 31.2694 286.471 32.4489 285.321 33.4963C284.201 34.5486 282.851 35.5177 281.291 36.3547C280.778 36.6598 280.208 36.9297 279.64 37.1986C279.388 37.3178 279.137 37.4369 278.891 37.5587C278.615 37.681 278.334 37.797 278.052 37.9136C277.905 37.9742 277.758 38.0351 277.611 38.0971C277.181 38.2782 276.751 38.4544 276.301 38.611L276.295 38.6132C275.847 38.7739 275.399 38.9347 274.961 39.0955C274.654 39.2 274.347 39.2957 274.041 39.3915C273.887 39.4393 273.734 39.4871 273.581 39.536C272.902 39.7612 272.189 39.9558 271.48 40.1492C271.25 40.2122 271.019 40.275 270.791 40.3387C267.021 41.3323 263.081 41.9979 259.191 42.4286C255.301 42.8447 251.421 43.0208 247.711 42.8985C244.001 42.781 240.461 42.3895 237.311 41.714C234.161 41.0435 231.441 40.0793 229.391 38.9487C227.301 37.8475 225.821 36.4917 225.511 35.1213C225.181 33.7508 225.971 32.4783 227.141 31.5092C228.311 30.5303 229.781 29.7913 231.211 29.2088C234.111 28.0586 236.801 27.5203 238.611 27.2168C239.531 27.0651 240.241 26.977 240.721 26.9231C241.201 26.8693 241.451 26.8448 241.451 26.8448C241.451 26.8448 241.211 26.884 240.741 26.9525C240.471 26.9916 240.121 27.0504 239.701 27.1287C240.131 27.07 240.591 27.0357 241.061 27.0357C243.941 27.0357 246.271 28.1761 246.271 29.5857C246.271 30.9953 243.941 32.1357 241.061 32.1357C238.181 32.1357 235.851 30.9953 235.851 29.5857C235.851 28.6264 236.931 27.7943 238.531 27.3587C236.791 27.7307 234.311 28.3572 231.771 29.5172C230.481 30.1192 229.191 30.868 228.241 31.798C227.291 32.7181 226.771 33.8487 227.201 34.9989C227.611 36.1491 228.991 37.2699 230.991 38.2096C232.951 39.1689 235.461 39.9618 238.341 40.4904C244.121 41.5574 251.261 41.6064 258.341 40.6715C261.871 40.2066 265.441 39.5214 268.791 38.5621C268.987 38.5032 269.184 38.4451 269.381 38.387C270.019 38.1989 270.657 38.0105 271.261 37.7936C271.443 37.7292 271.628 37.6668 271.813 37.6046C272.036 37.5297 272.258 37.4551 272.471 37.3776C272.666 37.3017 272.858 37.2271 273.051 37.1525C273.243 37.0778 273.436 37.0032 273.631 36.9273C274.031 36.7854 274.401 36.6239 274.761 36.4575C275.131 36.2959 275.501 36.1344 275.861 35.968C276.066 35.8602 276.277 35.7543 276.489 35.648C276.971 35.407 277.454 35.1645 277.871 34.8961C279.171 34.1571 280.241 33.3299 281.111 32.4587C282.011 31.5924 282.541 30.6429 282.841 29.6885C283.181 28.7243 283.011 27.7405 282.701 26.7518C282.688 26.718 282.675 26.6841 282.661 26.6503L241.086 26.6503L241.086 25.6503L282.17 25.6503C281.809 25.037 281.338 24.44 280.741 23.8739C278.871 22.0581 275.751 20.5457 271.941 19.4102C268.131 18.2698 263.711 17.4769 259.081 16.9141C255.921 16.5372 252.731 16.2484 249.511 16.082C249.051 16.0569 248.593 16.0289 248.135 16.001C246.992 15.9312 245.854 15.8618 244.711 15.8373C243.911 15.8079 243.111 15.7786 242.321 15.7541L241.131 15.7149L239.941 15.7051C233.621 15.6024 227.431 15.8275 221.491 16.3414C209.601 17.379 198.891 19.5815 189.431 21.9847C184.804 23.1794 180.455 24.4259 176.367 25.6503L240.993 25.6503L240.993 26.6503L174.63 26.6503C174.949 26.746 175.265 26.8446 175.581 26.9476C177.561 27.5937 179.411 28.3474 180.991 29.2284C181.1 29.2927 181.21 29.3562 181.32 29.4197C181.595 29.5785 181.871 29.7374 182.121 29.9087C182.461 30.1486 182.801 30.3933 183.131 30.6331C183.346 30.8218 183.555 31.0132 183.764 31.2033C183.836 31.2696 183.909 31.3357 183.981 31.4015C184.131 31.5288 184.241 31.6609 184.351 31.798L184.681 32.1993C184.72 32.2523 184.763 32.3045 184.806 32.3566C184.874 32.4392 184.942 32.5215 184.991 32.6056L185.231 33.0216C185.265 33.0843 185.3 33.1469 185.335 33.2093C185.456 33.4241 185.577 33.6374 185.631 33.8536L185.647 33.897C185.741 34.1611 185.835 34.4212 185.901 34.6857C185.931 34.9647 185.961 35.2436 185.991 35.5177C186.028 35.7194 186.005 35.9212 185.982 36.1209C185.974 36.1926 185.966 36.264 185.961 36.3351C185.948 36.4246 185.941 36.5147 185.934 36.6046C185.921 36.785 185.908 36.9646 185.841 37.1377C185.815 37.2217 185.79 37.3056 185.766 37.3894C185.635 37.8287 185.506 38.2652 185.271 38.6844C185.211 38.8093 185.148 38.9342 185.086 39.0591C185.023 39.1838 184.961 39.3085 184.901 39.4332L184.421 40.1527C184.35 40.2476 184.288 40.3416 184.226 40.4356C184.132 40.5791 184.038 40.7223 183.911 40.8673C183.827 40.9594 183.748 41.0514 183.67 41.1432C183.544 41.2905 183.419 41.4371 183.271 41.5819C182.341 42.5167 181.071 43.3684 179.531 44.0487C177.991 44.7339 176.211 45.2527 174.351 45.5806C170.631 46.2511 166.581 46.1679 163.261 45.4093C161.601 45.0324 160.151 44.4353 159.141 43.7158C158.131 42.9964 157.611 42.1496 157.551 41.347C157.491 40.5443 157.821 39.7905 158.291 39.1102C158.341 39.0456 158.389 38.9802 158.436 38.915C158.511 38.8122 158.585 38.7098 158.671 38.611C158.811 38.4543 158.951 38.2978 159.091 38.146C159.315 37.8763 159.591 37.6211 159.861 37.3711C159.904 37.3307 159.948 37.2905 159.991 37.2503C160.177 37.0618 160.409 36.8854 160.638 36.7108C160.766 36.6133 160.893 36.5164 161.011 36.4183C161.106 36.3547 161.206 36.2911 161.306 36.2275C161.406 36.1638 161.506 36.1002 161.601 36.0365L161.891 35.8505L162.221 35.6743C163.071 35.2094 164.091 34.808 165.291 34.6073C166.481 34.3969 167.801 34.4556 168.811 34.6808C169.841 34.9059 170.621 35.2583 171.211 35.6254C171.811 35.9925 172.231 36.3889 172.501 36.7805C172.771 37.172 172.931 37.5489 172.921 37.9111C172.941 38.4397 172.601 38.9046 172.081 39.2228C171.451 39.8248 170.171 40.231 168.701 40.231C166.601 40.231 164.891 39.3941 164.891 38.3662C164.891 37.3384 166.601 36.5015 168.701 36.5015C170.541 36.5015 172.071 37.1329 172.431 37.9796L172.431 37.9258C172.401 37.5978 172.191 37.2503 171.891 36.9028C171.591 36.5553 171.161 36.2029 170.581 35.8946C170.001 35.5862 169.281 35.3072 168.431 35.1555C167.581 35.0038 166.631 34.994 165.741 35.1849C164.851 35.366 164.041 35.7184 163.351 36.1491L163.131 36.3253L162.891 36.5015L162.891 36.5017C162.731 36.6191 162.571 36.7365 162.411 36.8588C162.356 36.9086 162.3 36.9585 162.243 37.0086C162.155 37.0865 162.066 37.165 161.981 37.2454C161.831 37.3776 161.691 37.5097 161.571 37.6517C160.551 38.7676 159.541 40.0254 159.801 41.298C159.921 41.9294 160.391 42.5363 161.191 43.0453C162.001 43.5494 163.111 43.9704 164.431 44.2298C167.061 44.7584 170.361 44.7486 173.261 44.1465C176.181 43.5592 178.651 42.3797 179.991 40.8477C180.09 40.7362 180.176 40.6213 180.262 40.5059C180.323 40.4239 180.384 40.3417 180.451 40.2604C180.549 40.1319 180.631 39.9886 180.712 39.8457C180.754 39.771 180.796 39.6964 180.841 39.6241C180.934 39.4574 181.033 39.2907 181.133 39.1217C181.162 39.0724 181.192 39.0229 181.221 38.9732L181.491 38.3124C181.659 37.9714 181.734 37.6303 181.809 37.287C181.832 37.182 181.855 37.0768 181.881 36.9714C181.926 36.8257 181.926 36.68 181.925 36.5343C181.924 36.4548 181.924 36.3754 181.931 36.2959C181.931 36.2297 181.935 36.1632 181.94 36.0965C181.95 35.9364 181.96 35.776 181.911 35.6205C181.891 35.5069 181.871 35.3946 181.85 35.2823C181.831 35.172 181.811 35.0616 181.791 34.95C181.751 34.825 181.699 34.7016 181.646 34.578C181.606 34.4837 181.566 34.3894 181.531 34.2941C181.487 34.1307 181.386 33.9777 181.284 33.8237C181.245 33.7655 181.207 33.7071 181.171 33.6481L180.971 33.3299C180.924 33.2581 180.86 33.1906 180.795 33.1232C180.763 33.0895 180.731 33.0558 180.701 33.0216L180.421 32.7132C180.331 32.6104 180.241 32.5077 180.111 32.4098C179.996 32.3118 179.878 32.2138 179.761 32.1159C179.643 32.018 179.526 31.9202 179.411 31.8224C179.271 31.7294 179.133 31.6364 178.996 31.5434C178.858 31.4504 178.721 31.3575 178.581 31.2645C178.394 31.1405 178.181 31.0252 177.968 30.9099C177.861 30.8523 177.754 30.7946 177.651 30.7359C176.341 30.0507 174.791 29.4437 173.071 28.9151C171.851 28.5383 170.541 28.2104 169.181 27.9167C167.561 28.4257 165.981 28.9201 164.441 29.3948C157.051 31.6805 150.511 33.5648 145.081 35.0038C139.851 36.6092 133.341 38.5278 125.361 40.3632C121.361 41.2637 116.991 42.1496 112.141 42.8299C109.721 43.1677 107.171 43.4466 104.481 43.6033C101.801 43.7648 98.961 43.799 96.041 43.5641C94.581 43.4466 93.121 43.246 91.681 42.9572C90.241 42.6733 88.841 42.2867 87.591 41.7923C86.331 41.3029 85.201 40.7254 84.241 40.0891C83.461 39.5507 82.811 39.0123 82.221 38.4299C80.171 38.1166 78.261 37.7055 76.541 37.221C73.211 36.2861 70.641 35.0576 68.901 33.8242C68.021 33.2075 67.331 32.5908 66.821 32.0035C66.804 31.9856 66.7869 31.9681 66.7701 31.9507C66.7175 31.8965 66.6664 31.8437 66.621 31.7881C66.591 31.7514 66.5635 31.716 66.536 31.6805C66.5085 31.645 66.481 31.6095 66.451 31.5728C66.4101 31.5182 66.3678 31.465 66.3262 31.4126C66.2559 31.3241 66.1875 31.238 66.131 31.1519C66.0978 31.1005 66.0647 31.0498 66.0319 30.9996C65.8867 30.7775 65.7489 30.5666 65.651 30.359C65.5932 30.2883 65.5388 30.216 65.4839 30.1431C65.4437 30.0897 65.4033 30.0359 65.361 29.9821C65.31 29.9072 65.2622 29.8308 65.214 29.7537C65.1771 29.6947 65.14 29.6353 65.101 29.5759C64.9783 29.3989 64.8848 29.2118 64.7882 29.0184C64.7352 28.9122 64.6812 28.8041 64.621 28.6949ZM161.587 26.6503C162.333 26.7403 163.062 26.8446 163.787 26.9483C163.992 26.9776 164.196 27.0068 164.401 27.0357L164.406 27.0365C164.914 27.1195 165.423 27.2024 165.931 27.2902C165.512 27.4344 165.096 27.5786 164.683 27.7221C164.099 27.9244 163.52 28.1254 162.941 28.3229C155.841 30.7848 149.581 32.8453 144.381 34.4458C138.981 35.875 132.281 37.5881 124.281 39.1836C120.281 39.9667 115.941 40.7254 111.281 41.2638C108.951 41.5329 106.541 41.7385 104.091 41.8364C101.641 41.9343 99.141 41.9049 96.741 41.6651C94.351 41.4155 92.071 40.9505 90.241 40.1772C89.871 40.0206 89.511 39.8493 89.171 39.6731C89.2805 39.712 89.3999 39.751 89.5193 39.79L89.521 39.7905C90.821 40.2212 92.591 40.6373 94.811 40.8624C95.921 40.9603 97.121 41.0386 98.401 41.0435C99.681 41.0435 101.031 41.0092 102.431 40.9015C108.051 40.5002 114.321 39.2325 120.771 37.5048C122.381 37.0741 124.021 36.6189 125.661 36.1393C127.291 35.645 128.961 35.1408 130.661 34.6318C130.776 34.597 130.892 34.5618 131.008 34.5264C131.316 34.4326 131.629 34.3376 131.941 34.2452L133.201 33.834C134.041 33.5599 134.891 33.281 135.741 32.9971C136.591 32.7132 137.451 32.4293 138.321 32.1455C138.999 31.918 139.67 31.6813 140.34 31.4452C140.52 31.3816 140.701 31.318 140.881 31.2547C145.355 29.6973 149.605 28.1437 153.618 26.6503L161.587 26.6503ZM148.428 26.6503C148.261 26.709 148.094 26.7678 147.926 26.8266C145.031 27.8445 142.052 28.8919 139.001 29.9528C132.161 32.3216 125.611 34.5144 119.411 36.3351C116.321 37.2405 113.331 38.0481 110.441 38.6942C108.991 39.0172 107.571 39.3011 106.191 39.5409C104.801 39.7807 103.451 39.9667 102.141 40.1136C100.831 40.2653 99.571 40.3436 98.371 40.3876C97.171 40.4317 96.031 40.4072 94.981 40.3583C92.871 40.2359 91.121 39.9227 89.791 39.5703C89.252 39.4404 88.8092 39.2903 88.4057 39.1535C88.3226 39.1254 88.2412 39.0978 88.161 39.071C88.151 39.0637 88.1385 39.0551 88.126 39.0466C88.1135 39.038 88.101 39.0294 88.091 39.0221C88.116 39.0246 88.1435 39.0258 88.171 39.027C88.1985 39.0282 88.226 39.0295 88.251 39.0319C88.4164 39.0393 88.581 39.048 88.7455 39.0566C89.1277 39.0768 89.5095 39.097 89.901 39.1004C90.461 39.1102 91.031 39.12 91.601 39.1298L93.321 39.1004C93.7314 39.09 94.1368 39.0674 94.5444 39.0446C94.7127 39.0352 94.8814 39.0258 95.051 39.0172C97.371 38.8753 99.691 38.5816 101.931 38.1754C105.241 37.5783 108.221 36.756 110.951 35.8995C113.681 35.0429 116.161 34.1326 118.491 33.2614C119.495 32.8859 120.47 32.5158 121.419 32.1556C122.671 31.68 123.879 31.2214 125.051 30.7897C127.111 30.0311 129.061 29.3459 130.891 28.7634C133.959 27.7761 136.723 27.093 138.893 26.6503L148.428 26.6503ZM141.156 25.6503C143.066 25.6148 144.973 25.6154 146.865 25.6503L141.156 25.6503ZM115.813 26.9298C117.061 26.8301 118.318 26.7372 119.583 26.6503L136.74 26.6503C134.793 26.9783 132.525 27.4434 130.071 28.088C128.091 28.597 125.981 29.2137 123.781 29.9087C121.581 30.6037 119.281 31.377 116.881 32.1846L116.46 32.3255C114.188 33.0859 111.815 33.8797 109.301 34.6171C106.631 35.4002 103.811 36.1491 100.791 36.6924C96.691 37.4461 92.511 37.7544 88.511 37.5733C87.741 37.544 86.981 37.4999 86.231 37.451C86.2027 37.4198 86.1732 37.3881 86.1433 37.3559C86.0886 37.2971 86.0327 37.237 85.981 37.1769C84.981 36.012 84.691 34.8031 85.441 33.7361C86.201 32.6692 88.001 31.7099 90.301 30.9463C92.601 30.173 95.301 29.5612 98.151 29.0473C101.001 28.5334 104.011 28.1223 107.101 27.765C109.583 27.4819 112.116 27.2367 114.687 27.0218C114.786 27.0306 114.886 27.0351 114.989 27.0351C115.285 27.0351 115.565 26.9972 115.813 26.9298ZM168.221 21.1739C167.449 21.4613 166.662 21.7544 165.861 22.0532C165.177 22.3078 164.484 22.5674 163.781 22.8309C162.768 23.2106 161.734 23.5984 160.671 23.9914C161.281 24.0599 161.881 24.1333 162.481 24.2116C163.52 24.3388 164.544 24.4974 165.565 24.6558C165.684 24.6742 165.802 24.6925 165.921 24.7109C166.156 24.7526 166.391 24.7937 166.626 24.8348C167.52 24.9911 168.408 25.1464 169.271 25.3324C169.731 25.4303 170.191 25.5282 170.651 25.631C171.841 25.215 173.061 24.7941 174.321 24.3731C178.411 23.0125 182.801 21.6274 187.531 20.2912C192.291 18.9697 197.391 17.6972 202.901 16.591C208.401 15.4849 214.321 14.5599 220.571 13.9432C226.821 13.3363 233.391 13.0475 240.081 13.116L241.341 13.1209L242.601 13.1551L245.121 13.2286C246.352 13.25 247.579 13.3208 248.807 13.3917C249.265 13.4181 249.722 13.4445 250.181 13.4684C253.561 13.6348 256.981 13.9334 260.391 14.3445C260.476 14.3543 260.561 14.3653 260.646 14.3763C260.731 14.3873 260.816 14.3984 260.901 14.4081C259.561 14.0557 258.161 13.718 256.701 13.3999C255.081 13.0475 253.381 12.7147 251.631 12.421C251.411 12.3843 251.188 12.35 250.966 12.3158C250.743 12.2815 250.521 12.2472 250.301 12.2105C250.076 12.1787 249.851 12.1457 249.626 12.1126C249.401 12.0796 249.176 12.0466 248.951 12.0148C248.772 11.9933 248.593 11.9696 248.413 11.9457C248.14 11.9095 247.864 11.8729 247.581 11.8434C247.346 11.819 247.108 11.7933 246.871 11.7676C246.633 11.7419 246.396 11.7162 246.161 11.6917C245.747 11.6469 245.33 11.6011 244.913 11.5552C244.373 11.4959 243.832 11.4365 243.291 11.3785C242.78 11.3351 242.269 11.2944 241.757 11.2536C241.287 11.2161 240.815 11.1785 240.341 11.1387C240.091 11.1191 239.843 11.0983 239.596 11.0775C239.348 11.0567 239.101 11.0359 238.851 11.0163C238.544 10.9863 238.234 10.971 237.924 10.9557C237.729 10.9461 237.534 10.9365 237.341 10.9233L237.035 10.907C236.125 10.8586 235.208 10.8097 234.291 10.7569C228.711 10.5122 223.271 10.5464 218.151 10.7863C213.031 11.0212 208.211 11.447 203.861 12.0245C203.65 12.0514 203.437 12.0767 203.224 12.102C202.894 12.1413 202.564 12.1805 202.241 12.2252C201.711 12.3035 201.191 12.3818 200.671 12.4601C200.297 12.517 199.924 12.5714 199.554 12.6252C198.906 12.7196 198.269 12.8125 197.651 12.9153C197.212 12.9907 196.779 13.066 196.351 13.1404C195.834 13.2304 195.324 13.3191 194.821 13.4048C194.634 13.4394 194.445 13.4715 194.256 13.5035C193.991 13.5484 193.728 13.5932 193.471 13.6446C193.289 13.681 193.109 13.7174 192.931 13.7534C192.677 13.8046 192.427 13.8552 192.181 13.904C191.512 14.0388 190.862 14.1675 190.23 14.2926C190.059 14.3265 189.889 14.3601 189.721 14.3934C189.244 14.4922 188.782 14.5964 188.331 14.6983C188.044 14.7631 187.761 14.8269 187.481 14.8878C186.761 15.0493 186.081 15.201 185.421 15.3479C185.053 15.4366 184.701 15.5253 184.359 15.6113C184.098 15.6772 183.842 15.7415 183.591 15.803C183.332 15.8837 183.066 15.9654 182.792 16.049C181.905 16.321 180.95 16.6138 179.971 16.9581C179.321 17.1784 178.641 17.4084 177.941 17.6433C177.903 17.6565 177.864 17.67 177.825 17.6836C177.69 17.7304 177.551 17.7789 177.411 17.8244C177.241 17.8881 177.061 17.9517 176.881 18.0153L176.88 18.0155C176.521 18.1476 176.161 18.2797 175.791 18.4118C175.078 18.6686 174.343 18.9334 173.585 19.2062C172.769 19.4999 171.927 19.8029 171.061 20.115C170.141 20.4588 169.193 20.8118 168.221 21.1739ZM288.391 37.2942C288.431 37.5095 288.651 37.6907 289.031 37.8081C289.411 37.9207 289.951 37.9501 290.471 37.862C290.731 37.8179 290.951 37.7445 291.131 37.6662C291.301 37.583 291.431 37.4851 291.511 37.3823C291.661 37.1767 291.601 36.9614 291.361 36.7852C291.121 36.6041 290.761 36.4866 290.411 36.423C290.231 36.3887 290.061 36.3692 289.891 36.3692C289.721 36.3594 289.561 36.3741 289.401 36.3985C289.091 36.4524 288.851 36.5698 288.661 36.7265C288.491 36.8733 288.361 37.0788 288.391 37.2942ZM294.291 36.4857C293.721 36.5102 293.191 36.4172 292.791 36.2165C292.391 36.0158 292.181 35.7564 292.111 35.5215C292.061 35.2768 292.151 35.0467 292.441 34.8509C292.731 34.6601 293.171 34.5279 293.671 34.479C294.171 34.43 294.731 34.4545 295.231 34.5916C295.731 34.7286 296.071 34.9537 296.181 35.218C296.301 35.4823 296.191 35.7858 295.801 36.0403C295.421 36.2997 294.851 36.4563 294.291 36.4857ZM296.04 33.8289C296.71 33.9855 297.46 33.9904 298.12 33.8533C298.78 33.7163 299.34 33.4422 299.62 33.08C300.19 32.3459 299.4 31.5774 297.98 31.3621C296.55 31.1467 295.06 31.5138 294.57 32.1452C294.32 32.4633 294.37 32.801 294.63 33.0996C294.89 33.3981 295.37 33.6674 296.04 33.8289ZM300.911 30.3579C300.201 30.5635 299.341 30.6222 298.501 30.5047C297.661 30.3824 297.001 30.1132 296.581 29.7755C296.161 29.4427 296.031 29.0511 296.191 28.6644C296.381 28.2778 296.841 27.9645 297.511 27.7492C298.161 27.5338 298.991 27.4164 299.861 27.4751C300.731 27.5289 301.461 27.759 301.941 28.1016C302.401 28.4393 302.611 28.8896 302.391 29.3399C302.191 29.7902 301.611 30.1475 300.911 30.3579ZM298.821 18.9594C298.021 18.8322 297.151 18.886 296.401 19.1063C295.651 19.3265 295.161 19.674 294.901 20.0411C294.781 20.2222 294.731 20.4082 294.741 20.5942C294.751 20.7801 294.851 20.9612 295.001 21.1326C295.091 21.2158 295.191 21.2941 295.301 21.3675C295.411 21.4409 295.531 21.5094 295.671 21.5681C295.801 21.6318 295.961 21.6856 296.121 21.7346C296.271 21.7835 296.441 21.8276 296.621 21.8618C296.981 21.9352 297.381 21.9793 297.791 21.994C298.201 22.0038 298.621 21.9842 299.041 21.9205C299.461 21.8569 299.831 21.7541 300.141 21.6171C300.441 21.4801 300.691 21.3087 300.851 21.1179C300.931 21.0249 301.001 20.9221 301.041 20.8144C301.081 20.7116 301.101 20.604 301.091 20.4914C301.091 20.3788 301.061 20.2662 301.011 20.1537C300.951 20.0411 300.871 19.9285 300.771 19.8209C300.571 19.6006 300.281 19.4195 299.941 19.2727C299.611 19.1258 299.221 19.0231 298.821 18.9594ZM292.14 16.2528C293.27 15.7781 295.01 15.8662 295.98 16.478C296.45 16.7863 296.64 17.1534 296.53 17.496C296.43 17.8386 296.04 18.147 295.42 18.3525C294.8 18.5581 294.08 18.6217 293.41 18.5728C292.75 18.5238 292.12 18.3623 291.7 18.0882C290.83 17.54 291 16.7227 292.14 16.2528ZM291.131 14.1628C290.351 13.7468 289.031 13.7223 288.201 14.1041C287.371 14.4858 287.321 15.1221 288.071 15.5235C288.831 15.9297 290.121 15.964 290.981 15.5969C291.841 15.2298 291.911 14.5838 291.131 14.1628ZM284.751 12.3221C285.381 12.0236 286.391 12.0382 287.001 12.3466C287.611 12.6598 287.581 13.1493 286.951 13.4478C286.311 13.7415 285.311 13.7317 284.711 13.4234C284.091 13.1101 284.121 12.6207 284.751 12.3221Z" fill="#365A97"/>
</g>
<defs>
<filter id="filter0_d_2684_8029" x="0" y="0.00195312" width="60.8984" height="64.0332" filterUnits="userSpaceOnUse" color-interpolation-filters="sRGB">
<feFlood flood-opacity="0" result="BackgroundImageFix"/>
<feColorMatrix in="SourceAlpha" type="matrix" values="0 0 0 0 0 0 0 0 0 0 0 0 0 0 0 0 0 0 127 0" result="hardAlpha"/>
<feOffset dy="4"/>
<feGaussianBlur stdDeviation="2"/>
<feComposite in2="hardAlpha" operator="out"/>
<feColorMatrix type="matrix" values="0 0 0 0 0 0 0 0 0 0 0 0 0 0 0 0 0 0 0.25 0"/>
<feBlend mode="normal" in2="BackgroundImageFix" result="effect1_dropShadow_2684_8029"/>
<feBlend mode="normal" in="SourceGraphic" in2="effect1_dropShadow_2684_8029" result="shape"/>
</filter>
<filter id="filter1_d_2684_8029" x="60.002" y="9.03516" width="312.896" height="45" filterUnits="userSpaceOnUse" color-interpolation-filters="sRGB">
<feFlood flood-opacity="0" result="BackgroundImageFix"/>
<feColorMatrix in="SourceAlpha" type="matrix" values="0 0 0 0 0 0 0 0 0 0 0 0 0 0 0 0 0 0 127 0" result="hardAlpha"/>
<feOffset dy="4"/>
<feGaussianBlur stdDeviation="2"/>
<feComposite in2="hardAlpha" operator="out"/>
<feColorMatrix type="matrix" values="0 0 0 0 0 0 0 0 0 0 0 0 0 0 0 0 0 0 0.25 0"/>
<feBlend mode="normal" in2="BackgroundImageFix" result="effect1_dropShadow_2684_8029"/>
<feBlend mode="normal" in="SourceGraphic" in2="effect1_dropShadow_2684_8029" result="shape"/>
</filter>
</defs>
</svg>
