<svg width="342" height="33" viewBox="0 0 342 33" fill="none" xmlns="http://www.w3.org/2000/svg">
<path d="M47 30H338.067L342 33H47V30Z" fill="#365A97"/>
<path d="M0 0H8L27 33H18L0 0Z" fill="#365A97"/>
<path d="M19 0H33L51.5 33H37L19 0Z" fill="#365A97"/>
<path d="M270 15H274L280 27H276L270 15Z" fill="#365A97"/>
<path d="M280 15H284L290 27H286L280 15Z" fill="#365A97"/>
<path d="M290 15H294L300 27H296L290 15Z" fill="#365A97"/>
<path d="M300 15H304L310 27H306L300 15Z" fill="#365A97"/>
<path d="M310 15H314L320 27H316L310 15Z" fill="#365A97"/>
<path d="M320 15H324L330 27H326L320 15Z" fill="#365A97"/>
<path d="M330 15H334L340 27H336L330 15Z" fill="#365A97"/>
</svg>
