<svg width="29" height="30" viewBox="0 0 29 30" fill="none" xmlns="http://www.w3.org/2000/svg">
<path d="M1.74 28.8406C1.74 29.4819 2.25837 30 2.9 30H13.2675V16.3768H1.74V28.8406ZM15.7325 30H26.1C26.7416 30 27.26 29.4819 27.26 28.8406V16.3768H15.7325V30ZM27.84 7.68116H22.4895C22.9825 6.9058 23.2725 5.98551 23.2725 5C23.2725 2.24275 21.0286 0 18.27 0C16.7692 0 15.4171 0.666666 14.5 1.71739C13.5829 0.666666 12.2308 0 10.73 0C7.97137 0 5.7275 2.24275 5.7275 5C5.7275 5.98551 6.01388 6.9058 6.5105 7.68116H1.16C0.518375 7.68116 0 8.19928 0 8.84058V13.913H13.2675V7.68116H15.7325V13.913H29V8.84058C29 8.19928 28.4816 7.68116 27.84 7.68116ZM13.2675 7.53623H10.73C9.33075 7.53623 8.1925 6.39855 8.1925 5C8.1925 3.60145 9.33075 2.46377 10.73 2.46377C12.1292 2.46377 13.2675 3.60145 13.2675 5V7.53623ZM18.27 7.53623H15.7325V5C15.7325 3.60145 16.8708 2.46377 18.27 2.46377C19.6692 2.46377 20.8075 3.60145 20.8075 5C20.8075 6.39855 19.6692 7.53623 18.27 7.53623Z" fill="url(#paint0_linear_12540_5075)"/>
<defs>
<linearGradient id="paint0_linear_12540_5075" x1="14.5" y1="0" x2="14.5" y2="30" gradientUnits="userSpaceOnUse">
<stop stop-color="#57D7FF"/>
<stop offset="1" stop-color="#1E50A6"/>
</linearGradient>
</defs>
</svg>
