<svg width="30" height="29" viewBox="0 0 30 29" fill="none" xmlns="http://www.w3.org/2000/svg">
<path fill-rule="evenodd" clip-rule="evenodd" d="M12.9761 0.685243C11.7245 0.902439 10.4542 1.29961 9.22371 1.8582C8.67914 2.10546 8.22201 2.2885 8.20797 2.26496C8.1938 2.24143 7.93375 1.9558 7.62984 1.63039L7.07738 1.03879L6.07915 3.8049C5.53017 5.3263 5.08828 6.58035 5.09724 6.59173C5.13187 6.63548 10.931 5.52533 10.9969 5.46227C11.0351 5.42556 10.8201 5.12765 10.5189 4.80019L9.97111 4.20489L10.5995 3.94727C14.2848 2.43598 18.1364 2.62069 21.4922 4.46966C25.499 6.67731 27.8834 11.1335 27.3734 15.4611C27.1969 16.9588 26.9237 17.9018 26.3076 19.1397C25.659 20.4429 25.1733 21.1262 24.1555 22.1671C23.4099 22.9298 21.9316 24.0049 21.0087 24.456C20.6359 24.6382 20.5827 24.7374 20.5026 25.4006C20.4534 25.8083 20.2729 26.4694 20.1018 26.8696L19.7904 27.5974L20.6747 27.2793C26.7095 25.1076 30.5936 19.1185 29.9255 13.0145C29.3193 7.47536 25.5784 2.96759 20.1061 1.18193C18.0656 0.516143 15.1294 0.31161 12.9761 0.685243ZM2.68497 8.30525C1.83703 8.41091 1.20474 8.65241 0.921695 8.97871C0.631024 9.31371 0.129638 11.5321 0.0348427 12.9028C-0.18189 16.036 0.618322 19.2588 2.27236 21.9131C4.6496 25.7282 9.70892 28.7056 14.2722 28.9752C15.8103 29.066 15.9926 28.9671 16.7159 27.6501C17.636 25.9748 17.6546 24.9968 16.7817 24.1976C16.2792 23.7376 13.9613 22.7521 13.3817 22.7521C12.6592 22.7521 11.8348 23.2678 11.3976 23.9933C11.177 24.3596 10.9213 24.6887 10.8296 24.7248C10.7378 24.761 10.2822 24.6781 9.81722 24.5407C7.64722 23.8995 5.46559 21.7828 4.10984 19.0032C3.49788 17.7485 3.25668 16.6679 3.33289 15.523C3.39627 14.5699 3.45817 14.5026 4.37925 14.3857C5.15032 14.2879 5.80867 13.8852 6.17301 13.2883C6.409 12.9018 6.43988 12.6593 6.40753 11.4465C6.3594 9.64207 6.0583 8.91744 5.18067 8.49418C4.70656 8.26547 3.6479 8.18527 2.68497 8.30525ZM10.4939 10.6486C9.83554 10.8822 9.58979 11.0877 9.37132 11.5876C9.04201 12.3413 9.11662 12.5195 9.75973 12.5163C10.2683 12.5138 10.3491 12.4702 10.5285 12.1005C10.7109 11.7251 10.7835 11.6876 11.329 11.6876C11.8553 11.6876 11.951 11.7319 12.1097 12.0489C12.2093 12.2475 12.2574 12.5367 12.2168 12.6915C12.1763 12.8464 11.4789 13.716 10.6673 14.624C9.28294 16.1726 9.19149 16.3093 9.19149 16.8274V17.3798H11.3307H13.47V16.8681V16.3565H12.133C11.3976 16.3565 10.7959 16.3242 10.7959 16.285C10.7959 16.2457 11.3436 15.5981 12.013 14.8459C12.6823 14.0938 13.284 13.3451 13.3501 13.1823C13.6811 12.3649 13.3103 11.2384 12.5742 10.8246C12.018 10.5121 11.098 10.4342 10.4939 10.6486ZM15.3734 12.9678C14.4852 14.6708 14.2722 15.1905 14.2722 15.654V16.2285H15.6092H16.9463V16.8041V17.3798H17.4811H18.0159V16.8041C18.0159 16.2755 18.0432 16.2285 18.3501 16.2285C18.65 16.2285 18.6844 16.1767 18.6844 15.7258C18.6844 15.3018 18.6372 15.2166 18.3836 15.1822C18.1075 15.1446 18.0795 15.0649 18.0434 14.2139L18.0041 13.2866H17.4752H16.9463V14.2459V15.2052H16.2777C15.9101 15.2052 15.6092 15.147 15.6092 15.0758C15.6092 15.0047 16.091 14.0261 16.6797 12.9013L17.7501 10.8562H17.1123H16.4746L15.3734 12.9678ZM20.0214 14.8215V17.3798H20.4894H20.9574V16.1205C20.9574 15.0629 20.9965 14.8273 21.2019 14.6495C21.5089 14.3837 21.8137 14.3799 22.0843 14.6387C22.2471 14.7945 22.2944 15.1258 22.2944 16.1097V17.3798H22.7623H23.2303V15.8621C23.2303 14.5273 23.1974 14.3044 22.9571 14.0121C22.6046 13.5833 21.9096 13.4521 21.3658 13.7115L20.9574 13.9065V13.0848V12.2633H20.4894H20.0214V14.8215Z" fill="url(#paint0_linear_12540_4957)"/>
<defs>
<linearGradient id="paint0_linear_12540_4957" x1="15" y1="0.5" x2="15" y2="29" gradientUnits="userSpaceOnUse">
<stop stop-color="#57D7FF"/>
<stop offset="1" stop-color="#1E50A6"/>
</linearGradient>
</defs>
</svg>
