<svg width="29" height="29" viewBox="0 0 29 29" fill="none" xmlns="http://www.w3.org/2000/svg">
<path d="M14.5 0C6.496 0 0 6.496 0 14.5C0 22.504 6.496 29 14.5 29C22.504 29 29 22.504 29 14.5C29 6.496 22.504 0 14.5 0ZM14.587 24.65V21.7355H14.5C12.644 21.7355 10.788 21.025 9.367 19.6185C8.18676 18.437 7.45 16.8847 7.28096 15.2233C7.11191 13.5619 7.52091 11.893 8.439 10.498L10.034 12.093C9.0045 14.0215 9.2655 16.4575 10.8895 18.0815C11.9045 19.0965 13.2385 19.575 14.5725 19.546V16.443L18.676 20.5465L14.587 24.65ZM20.5465 18.502L18.9515 16.907C19.981 14.9785 19.72 12.5425 18.096 10.9185C17.6253 10.4439 17.0651 10.0675 16.4478 9.81114C15.8305 9.55477 15.1684 9.42351 14.5 9.425H14.413V12.5425L10.3095 8.4535L14.413 4.35V7.279C16.298 7.25 18.1975 7.9315 19.633 9.3815C22.098 11.8465 22.4025 15.689 20.5465 18.502Z" fill="#717171"/>
</svg>
