<svg width="24" height="24" viewBox="0 0 24 24" fill="none" xmlns="http://www.w3.org/2000/svg">
<path fill-rule="evenodd" clip-rule="evenodd" d="M10.9236 0.0283987C8.60448 0.255454 6.46107 1.10982 4.58176 2.55625C3.66658 3.26061 2.47809 4.58435 1.79127 5.66418C1.49465 6.13054 0.917244 7.3123 0.710401 7.87628C0.479128 8.50693 0.232635 9.47065 0.111338 10.2184C-0.0371126 11.1337 -0.0371126 12.8715 0.111338 13.7867C0.321235 15.0806 0.653275 16.1266 1.22161 17.2846C1.84257 18.5497 2.48823 19.4464 3.52217 20.4798C4.55616 21.5132 5.45343 22.1585 6.71926 22.7791C7.87792 23.3471 8.92449 23.6789 10.2191 23.8887C11.1349 24.0371 12.8736 24.0371 13.7894 23.8887C15.0841 23.6789 16.1306 23.3471 17.2893 22.7791C18.5551 22.1585 19.4524 21.5132 20.4864 20.4798C21.5203 19.4464 22.166 18.5497 22.7869 17.2846C23.1994 16.4443 23.4068 15.8935 23.629 15.049C23.9249 13.9243 24 13.3078 24 12.0026C24 10.6973 23.9249 10.0808 23.629 8.95616C23.4068 8.11165 23.1994 7.56091 22.7869 6.72058C22.166 5.45548 21.5203 4.55871 20.4864 3.52532C19.4524 2.49197 18.5551 1.84668 17.2893 1.22608C16.1318 0.658577 15.0645 0.320012 13.8129 0.12324C13.1224 0.014689 11.5805 -0.0359243 10.9236 0.0283987ZM12.8969 1.86212V2.80213L11.969 2.78941L11.0412 2.77668L11.0285 1.8494L11.0158 0.922113H11.9563H12.8969V1.86212ZM5.48608 5.48769L4.81707 6.15632L4.15915 5.50004L3.50122 4.84375L4.17028 4.1739L4.83934 3.504L5.49722 4.16155L6.1551 4.81906L5.48608 5.48769ZM19.8498 5.49924L19.1919 6.15674L18.5229 5.48811L17.8539 4.81948L18.5105 4.16193L19.1672 3.50438L19.8374 4.17306L20.5077 4.84173L19.8498 5.49924ZM13.3178 3.72242C16.5835 4.23245 19.2583 6.65658 20.1249 9.89161C20.4705 11.182 20.4705 12.8231 20.1249 14.1135C19.4169 16.7562 17.5198 18.865 14.9649 19.8492C13.4263 20.4419 11.4857 20.545 9.8921 20.1186C6.64456 19.2496 4.26386 16.6201 3.71121 13.2919C3.60626 12.66 3.60626 11.3451 3.71121 10.7133C4.26409 7.38353 6.64414 4.75586 9.89539 3.88572C10.9402 3.60607 12.1908 3.5464 13.3178 3.72242ZM11.4171 5.19593C10.1425 5.30862 8.9228 5.77634 7.8937 6.54695C7.30188 6.99017 6.60289 7.7505 6.20179 8.38734C5.13638 10.0789 4.88171 12.2789 5.53048 14.1858C6.41785 16.794 8.72827 18.5844 11.4993 18.8111C12.8892 18.9249 14.4398 18.5452 15.6216 17.8017C16.2588 17.4009 17.0195 16.7023 17.463 16.1108C18.8188 14.3025 19.1998 11.9407 18.4781 9.81935C17.8953 8.10629 16.6526 6.68414 15.0447 5.88982C13.9076 5.3281 12.6477 5.0871 11.4171 5.19593ZM12.7559 8.90531C13.6035 9.65638 14.7405 10.7563 15.0095 11.0854C15.5018 11.6878 15.6844 12.1917 15.6823 12.9416C15.6804 13.6277 15.508 14.0925 15.1067 14.4936C14.6929 14.9071 14.1833 15.0819 13.4965 15.0459C13.0443 15.0221 12.6891 14.8805 12.4012 14.6092C12.3039 14.5175 12.2451 14.4852 12.2585 14.5308C12.3419 14.8152 12.615 15.8095 12.615 15.8289C12.615 15.8419 12.3402 15.8526 12.0043 15.8526C11.605 15.8526 11.3936 15.8353 11.3936 15.8028C11.3936 15.7753 11.4676 15.4961 11.558 15.1821C11.6484 14.8682 11.7224 14.5949 11.7224 14.5749C11.7224 14.5549 11.622 14.6156 11.4993 14.7097C11.1774 14.9566 10.915 15.0589 10.5323 15.0867C10.1591 15.1137 9.68168 15.0237 9.37872 14.8693C8.33581 14.3375 7.99814 12.8519 8.63567 11.6002C8.87211 11.136 9.79547 10.1949 11.4117 8.77093L12.0155 8.23898L12.1626 8.37443C12.2434 8.4489 12.5105 8.68783 12.7559 8.90531ZM2.74962 12.0026V12.9416H1.81006H0.870501V12.0026V11.0636H1.81006H2.74962V12.0026ZM23.0441 12.0026V12.9416H22.128H21.212V12.0026V11.0636H22.128H23.0441V12.0026ZM5.49783 18.5288L6.15425 19.1861L5.49783 19.8434L4.84136 20.5008L4.17131 19.8323L3.50127 19.1638L4.1466 18.5177C4.50152 18.1622 4.80303 17.8715 4.81665 17.8715C4.83027 17.8715 5.1368 18.1673 5.49783 18.5288ZM19.8619 18.5177L20.5073 19.1638L19.8372 19.8323L19.1672 20.5008L18.5107 19.8434L17.8543 19.1861L18.5107 18.5288C18.8717 18.1673 19.1783 17.8715 19.1919 17.8715C19.2055 17.8715 19.507 18.1622 19.8619 18.5177ZM12.8969 22.144V23.083H11.9573H11.0177V22.1753C11.0177 21.6761 11.0318 21.2535 11.0491 21.2363C11.0663 21.2191 11.4891 21.205 11.9886 21.205H12.8969V22.144Z" fill="#717171"/>
</svg>
