<svg width="21" height="22" viewBox="0 0 21 22" fill="none" xmlns="http://www.w3.org/2000/svg">
<path fill-rule="evenodd" clip-rule="evenodd" d="M7.16229 0.545363C6.26766 0.67358 5.33123 0.947669 5.15336 1.13332C4.81384 1.48776 5.00062 2.03885 5.50422 2.16842C5.92103 2.27566 6.23839 2.39608 6.60751 2.58711L7.00216 2.79132L7.55165 2.66738C8.82226 2.38076 9.4678 2.31327 10.948 2.31237L12.1939 2.31159L11.824 1.95719C11.0962 1.25969 10.2814 0.831235 9.25053 0.603785C8.7558 0.494659 7.71864 0.465633 7.16229 0.545363ZM9.90732 3.5504C7.75854 3.73191 6.29479 4.19178 4.91277 5.11948C1.18325 7.62306 -0.565749 11.1824 0.161978 14.7876C0.441896 16.1744 1.13921 17.5178 2.25305 18.816C3.0334 19.7256 4.28254 20.8092 5.19142 21.3649C5.42593 21.5083 5.44186 21.5119 5.74288 21.4902C6.92273 21.4055 7.85509 20.6124 8.1655 19.4295C8.28836 18.9613 8.31332 18.2088 8.22675 17.5844C8.1474 17.0123 8.07281 16.8392 7.85123 16.7126C7.63896 16.5914 7.52509 16.596 7.11012 16.7425C6.46227 16.9711 6.00309 17.0455 5.22766 17.0473C4.4508 17.049 4.08312 16.9834 3.51495 16.7416C2.86349 16.4644 2.13622 15.8462 1.70499 15.2033L1.51781 14.9243L1.66468 14.6942C2.07838 14.0461 2.73546 13.339 3.28421 12.9515C3.65821 12.6874 4.18086 12.4499 4.61697 12.3458C4.93001 12.2711 5.06523 12.2617 5.57659 12.2793C6.24976 12.3024 6.36642 12.3298 7.42382 12.7129C8.75851 13.1964 10.5061 13.6752 12.0089 13.9691C12.4198 14.0494 12.7739 14.1151 12.7958 14.1151C12.8177 14.1151 12.7424 13.9535 12.6285 13.7559C12.0237 12.7071 11.5312 11.263 11.404 10.1656C11.3418 9.62803 11.3716 8.67274 11.464 8.24416C11.6977 7.16098 12.1468 6.34253 12.9406 5.55327C13.4254 5.07115 13.8168 4.77539 14.436 4.42309L14.8188 4.20533L14.6208 4.12724C14.0244 3.89203 12.8615 3.6484 11.9393 3.56547C11.5053 3.52643 10.297 3.51748 9.90732 3.5504ZM15.4181 5.28391C14.0635 6.03679 13.4224 6.63752 12.9822 7.56673C12.7234 8.11286 12.6291 8.52494 12.6058 9.2102C12.5574 10.6366 13.0356 12.1264 14.0603 13.741C14.4882 14.4151 14.3252 14.3482 15.6337 14.3878C17.3826 14.4406 18.9187 14.217 20.172 13.7268C20.7442 13.503 20.8292 13.4488 20.936 13.2395C21.0368 13.0419 21.026 12.8913 20.8497 12.0342C20.2065 8.90754 18.7586 6.55832 16.5695 5.08975C16.3955 4.97307 16.2292 4.87786 16.2 4.87823C16.1708 4.8786 15.8189 5.06118 15.4181 5.28391ZM16.6996 8.50075C16.9362 8.62212 17.0405 8.81183 17.0172 9.07857C16.9969 9.31058 16.8942 9.46815 16.6981 9.56812C16.4035 9.71835 16.0554 9.61472 15.891 9.32787C15.7766 9.12829 15.7743 8.97593 15.8821 8.75304C15.9422 8.62885 16.0156 8.5547 16.1387 8.49377C16.3589 8.38477 16.4762 8.38621 16.6996 8.50075Z" fill="#717171"/>
</svg>
