<svg width="21" height="22" viewBox="0 0 21 22" fill="none" xmlns="http://www.w3.org/2000/svg">
<path fill-rule="evenodd" clip-rule="evenodd" d="M17.8732 0.708301C17.2892 1.19689 16.75 1.48498 16.0621 1.67605C15.6935 1.77839 15.5941 1.78857 14.9593 1.78857C14.3263 1.78857 14.2245 1.77823 13.861 1.67724C13.6407 1.61599 13.2251 1.46504 12.9376 1.34177C11.6886 0.806339 10.5728 0.631348 8.68117 0.674255C7.5828 0.699195 7.06051 0.754941 6.11247 0.948433C5.63517 1.04586 4.7681 1.28968 4.40834 1.42767C4.36082 1.44592 4.35031 1.37865 4.35031 1.05586V0.661785H2.17516H0V4.90737V9.15295H2.17516H4.35031V8.55816C4.35031 8.09176 4.36205 7.96336 4.40469 7.96336C4.43461 7.96336 4.59618 8.01021 4.76379 8.06743C4.93141 8.1247 5.28091 8.22499 5.54049 8.29034C6.75997 8.59729 7.68326 8.70443 9.10479 8.70398L10.104 8.70365L9.49209 9.33225C5.77364 13.1516 3.85885 17.144 3.8579 21.0795L3.85782 21.5H8.45438H13.0509L13.051 20.9565C13.0511 18.4587 13.9872 15.2461 15.8797 11.2478C17.0543 8.76629 18.9209 5.52127 20.5764 3.08275C20.8136 2.73351 21.0041 2.44476 20.9999 2.44107C20.9714 2.41621 18.1322 0.498196 18.1266 0.500001C18.1227 0.501273 18.0086 0.595004 17.8732 0.708301Z" fill="#717171"/>
</svg>
