<svg width="24" height="24" viewBox="0 0 24 24" fill="none" xmlns="http://www.w3.org/2000/svg">
<path fill-rule="evenodd" clip-rule="evenodd" d="M11.1546 0.0116304C11.0642 0.0221028 10.7895 0.0533323 10.5441 0.0810396C8.50289 0.311527 6.47207 1.13458 4.72455 2.4395C4.14087 2.87535 2.86431 4.15322 2.42463 4.74179C1.15653 6.43931 0.400529 8.26499 0.087366 10.3861C-0.0377489 11.2336 -0.026853 12.8902 0.10958 13.7673C0.642775 17.1955 2.52875 20.1443 5.41221 22.0585C6.12186 22.5295 7.36991 23.1314 8.21931 23.4122C8.94746 23.6529 9.76977 23.8407 10.5441 23.943C11.1195 24.019 12.8805 24.019 13.4559 23.943C14.8218 23.7626 16.0593 23.3887 17.2836 22.7868C18.5497 22.1643 19.4564 21.5203 20.4463 20.5405C22.3134 18.6924 23.4817 16.3948 23.8904 13.7673C24.0269 12.8902 24.0378 11.2336 23.9126 10.3861C23.5997 8.26663 22.8289 6.40963 21.5662 4.73352C21.1453 4.17482 20.2435 3.23625 19.6553 2.74465C17.9585 1.32674 15.7521 0.370041 13.5029 0.0770479C13.0922 0.0235586 11.4474 -0.0222759 11.1546 0.0116304ZM13.6203 0.660311C13.8786 0.700651 14.2956 0.779593 14.5469 0.835712L15.0037 0.93776L14.6408 1.14326C14.4411 1.25635 14.0841 1.50449 13.8474 1.69483L13.4171 2.04079L12.4385 2.03943C10.6638 2.03694 9.22573 2.36474 7.63676 3.13392L6.96032 3.46138L6.07489 3.16764C5.58796 3.00609 5.19627 2.8537 5.20449 2.82904C5.24474 2.70826 6.18859 2.1026 6.85733 1.76851C8.04963 1.17276 9.52677 0.736717 10.8259 0.597007C11.3988 0.535393 13.0621 0.573056 13.6203 0.660311ZM14.8412 4.25733C15.6291 5.04493 16.2738 5.70577 16.2738 5.72578C16.2738 5.77077 14.3044 11.1582 14.2537 11.2521C14.2283 11.2991 13.4881 11.4602 11.8288 11.7798C10.5152 12.0329 9.40617 12.2401 9.36437 12.2405C9.32252 12.2408 8.37594 11.3 7.26085 10.1497L5.23337 8.05845L5.26489 7.88385C5.43471 6.94316 5.9277 5.78006 6.56197 4.82364C6.77584 4.50111 6.85724 4.42175 7.16213 4.2385C8.06626 3.69492 9.37315 3.18478 10.3562 2.99158C11.2069 2.82444 11.3873 2.80913 12.4107 2.8173L13.4085 2.82529L14.8412 4.25733ZM19.6628 3.49036C21.0666 4.72831 22.2543 6.52192 22.8428 8.2927C22.9236 8.53605 22.9897 8.74738 22.9895 8.76231C22.9893 8.7772 22.8932 8.62143 22.7759 8.41611C22.2803 7.54854 21.4139 6.49055 20.6759 5.85187L20.2933 5.5207L20.1711 5.10828C19.9679 4.42245 19.5213 3.594 19.0853 3.09367C18.788 2.75264 18.9606 2.87122 19.6628 3.49036ZM18.7593 6.11537L19.9061 6.18755L20.2237 6.46904C21.285 7.40991 22.2296 8.76607 22.7338 10.0727C22.8664 10.4163 22.8665 10.4173 22.8072 10.8925C22.6743 11.9572 22.3642 13.211 22.0277 14.0447C21.776 14.6682 21.4799 15.198 21.3695 15.2222C21.3179 15.2336 20.4197 15.3181 19.3735 15.41C18.3274 15.5019 17.4145 15.5865 17.3448 15.598C17.2225 15.6182 17.18 15.5522 16.0885 13.6427C15.4671 12.5558 14.9585 11.6425 14.958 11.6133C14.9576 11.584 15.4161 10.3063 15.9769 8.77382L16.9964 5.98749L17.3044 6.01534C17.4737 6.0307 18.1284 6.07569 18.7593 6.11537ZM1.54638 8.40212C1.54258 9.46542 1.5392 9.50299 1.41554 9.84605C1.05649 10.8422 0.87079 11.9796 0.867314 13.2038L0.864919 14.0491L0.756383 13.8378C0.620795 13.5739 0.540532 12.9027 0.540532 12.033C0.540532 10.4093 0.861162 8.86892 1.51139 7.36882C1.52539 7.33656 1.53985 7.31017 1.54356 7.31026C1.54727 7.31035 1.54854 7.80171 1.54638 8.40212ZM6.29173 10.2452C7.14048 11.1234 8.03512 12.0458 8.27981 12.295L8.72471 12.7482L8.52863 14.9014C8.42075 16.0857 8.32231 17.1079 8.30982 17.1729C8.28854 17.2836 8.16216 17.3328 6.33766 17.9403L4.38828 18.5894L4.16689 18.4112C3.56949 17.9303 2.78133 17.0853 2.22235 16.3265C1.98799 16.0083 1.95282 15.9282 1.861 15.5046C1.48143 13.7533 1.54568 11.9719 2.04661 10.3597L2.18896 9.90151L2.52711 9.67064C2.71313 9.54371 3.01324 9.35919 3.19406 9.26072C3.56142 9.06061 4.62287 8.62138 4.69929 8.63786C4.72638 8.64373 5.44298 9.36704 6.29173 10.2452ZM21.5198 17.1134L21.6176 18.2287L21.4979 18.4165C20.7618 19.5715 19.3373 20.9689 18.4358 21.4205C17.7248 21.7766 16.3519 22.113 14.9255 22.2806L14.5869 22.3204L14.2755 21.0386C14.1042 20.3337 13.9713 19.7372 13.98 19.7132C13.9962 19.669 15.5796 18.0098 16.6191 16.9479L17.1833 16.3715L19.0885 16.1906C20.1364 16.0911 21.0901 16.0071 21.2078 16.0039L21.4219 15.998L21.5198 17.1134ZM10.9527 18.9404C12.1874 19.4739 13.2049 19.9162 13.214 19.9233C13.2387 19.943 13.8299 22.3971 13.8308 22.484C13.8332 22.7111 12.513 23.0535 11.1546 23.1783C10.0026 23.284 9.91884 23.2854 9.55679 23.2061C8.59297 22.9948 7.31829 22.5152 6.48987 22.052C5.95137 21.7509 5.22219 21.2695 4.99136 21.0625L4.81613 20.9055L4.76429 20.115C4.73578 19.6803 4.72629 19.3105 4.74315 19.2932C4.7779 19.2578 8.56409 17.9798 8.65144 17.9741C8.68248 17.9721 9.71806 18.4069 10.9527 18.9404Z" fill="#717171"/>
</svg>
