<svg width="21" height="22" viewBox="0 0 21 22" fill="none" xmlns="http://www.w3.org/2000/svg">
<path d="M18.4545 0.5H2.54545C1.13909 0.5 0 1.60559 0 2.97059V19.0294C0 20.3944 1.13909 21.5 2.54545 21.5H18.4545C19.8609 21.5 21 20.3944 21 19.0294V2.97059C21 1.60559 19.8609 0.5 18.4545 0.5ZM10.0259 9.4775C10.01 9.40647 9.975 9.31691 9.905 9.24279C9.835 9.19029 9.80318 9.15323 9.80318 9.13471C9.80318 9.04515 9.85409 8.98956 9.99409 8.98956C10.185 8.98956 10.4077 9.04206 10.6495 9.13471C10.6655 9.15323 10.6845 9.15324 10.6845 9.15324C10.9964 9.04515 11.34 8.9 11.6836 8.68382C11.8045 8.61279 11.8905 8.57574 11.9605 8.57574C12.1323 8.57574 12.3741 8.64676 12.6859 8.79191C12.9086 8.93706 13.0295 9.04515 13.0295 9.13471C13.0295 9.24279 12.9945 9.36941 12.9277 9.51456C12.6859 10.1631 12.565 10.685 12.565 11.0988C12.565 11.4046 12.6159 11.6207 12.7209 11.7288C12.8068 11.8369 12.9436 11.874 13.1345 11.874C13.3064 11.874 13.4973 11.8184 13.72 11.7103C13.8568 11.6393 13.9427 11.6022 14.0127 11.6022C14.2705 11.6022 14.5314 11.6732 14.77 11.8184C14.9068 11.9265 14.9768 12.0346 14.9768 12.1612C14.9768 12.2878 14.875 12.3774 14.7 12.4329C14.4232 12.541 14.0795 12.5781 13.6659 12.5781C12.9755 12.5781 12.4918 12.47 12.2532 12.2353C12.0114 12.0006 11.8905 11.6238 11.8905 11.0988C11.8905 10.8826 11.8905 10.6294 11.9255 10.3237C11.9414 10.0519 11.9605 9.83882 11.9605 9.69368C11.9605 9.42191 11.8905 9.27985 11.7536 9.27985C11.6518 9.27985 11.5309 9.31691 11.375 9.35088C11.1332 9.45897 10.9614 9.51147 10.8564 9.54853C10.8055 9.67515 10.7864 9.80176 10.7864 9.90985C10.7514 10.3978 10.7514 10.6294 10.7514 10.6294C10.7514 11.0247 10.7005 11.3675 10.5955 11.6578C10.4936 11.945 10.3727 12.1797 10.2327 12.3774C10.0959 12.5565 9.88909 12.7201 9.61227 12.8807C9.35455 13.0259 9.17955 13.0784 9.11273 13.0784H9.06182C9.33864 12.8066 9.52636 12.575 9.66636 12.3588C9.80318 12.1241 9.92409 11.8554 9.99409 11.5312C10.0641 11.2254 10.115 10.8826 10.115 10.4874V10.055C10.1118 9.83882 10.0768 9.64118 10.0259 9.4775ZM8.38727 16.179C8.25045 17.1332 7.97364 17.8374 7.56 18.3407C7.33727 18.5754 7.13045 18.7021 6.95545 18.7021C6.85364 18.7021 6.76455 18.594 6.66273 18.4149C6.44 18.0196 6.05818 16.9325 5.54273 16.3921C5.54273 16.355 5.55864 16.321 5.61273 16.321C6.26818 16.6082 6.64682 17.371 6.76773 17.371C6.90455 17.371 7.04455 17.2259 7.21636 16.9201C7.38818 16.5249 7.54409 15.9999 7.665 15.3359C7.735 14.7584 7.76682 14.3075 7.76682 13.9832C7.76682 13.8566 7.68091 13.7856 7.50909 13.7856C7.18136 13.7856 6.87273 13.8226 6.57682 13.8937C6.35409 13.9647 6.14409 14.1099 5.95636 14.3075C5.61273 14.6688 5.33591 14.8294 5.145 14.8294C4.93818 14.8294 4.81727 14.7028 4.80136 14.4156C4.83636 14.1994 4.88727 14.0203 4.98909 13.9122C5.30091 13.625 5.47273 13.3007 5.53955 12.9765C5.62545 12.6893 5.67636 12.5071 5.67636 12.436C5.67636 12.436 5.62545 12.3465 5.53955 12.1488L5.48864 12.0932V12.0562C5.47273 12.0562 5.45364 12.0376 5.45364 12.0191C5.38364 11.9481 5.34864 11.874 5.34864 11.8029C5.34864 11.7134 5.38364 11.6578 5.48545 11.6578C6.12182 11.6053 6.72636 11.4972 7.28 11.315C7.48682 11.2625 7.65864 11.2254 7.77955 11.1884C7.84955 10.9012 7.91636 10.6479 7.95136 10.4132C8.00227 10.16 8.03727 9.94382 8.03727 9.76471C8.03727 9.67515 7.96727 9.61956 7.83045 9.61956C7.70955 9.61956 7.57273 9.65662 7.40091 9.72765C7.03818 9.85426 6.79636 9.90676 6.69455 9.90676C6.59273 9.90676 6.50364 9.88824 6.43682 9.81721C6.35091 9.92529 6.265 10.0149 6.195 10.089C5.48864 10.8826 4.76318 11.4941 4.02182 11.9265C3.38227 12.3218 2.90182 12.504 2.59 12.504C2.53909 12.504 2.52 12.4854 2.52 12.4329C2.52 12.3959 2.57091 12.3434 2.69182 12.2724C3.62409 11.6238 4.50227 10.8301 5.31364 9.85735C5.52045 9.60412 5.72727 9.33544 5.91818 9.06368H5.88636C5.74955 9.06368 5.62864 9.01118 5.50773 8.88456C5.23091 8.66838 4.85227 8.2175 4.36864 7.53191C4.29864 7.46088 4.26682 7.40529 4.26682 7.36824C4.26682 7.33118 4.30182 7.29721 4.33682 7.29721C4.49273 7.29721 4.66455 7.33426 4.87136 7.40529C5.33591 7.55044 5.68273 7.6925 5.90545 7.85618C6.11227 8.05382 6.23318 8.30706 6.23318 8.61279C6.57682 8.10941 6.88864 7.60294 7.13045 7.09956C7.54409 6.27191 7.76682 5.76544 7.76682 5.54926C7.76682 5.45971 7.71591 5.40412 7.64591 5.40412C7.47409 5.40412 7.23227 5.45971 6.92045 5.56471C6.42091 5.63574 6.05818 5.67279 5.81636 5.67279C5.64455 5.67279 5.48864 5.65426 5.35182 5.58323C5.25 5.54618 5.215 5.51221 5.215 5.47515C5.215 5.36706 5.32 5.29603 5.55864 5.25897C6.49091 5.11382 7.21318 4.95324 7.69682 4.73706C7.92273 4.66603 8.07545 4.62897 8.18045 4.62897C8.30136 4.62897 8.52409 4.71853 8.83591 4.88221C9.14773 5.09838 9.31955 5.2775 9.31955 5.40412C9.31955 5.49368 9.24955 5.62029 9.11273 5.76544C8.785 6.14529 8.57818 6.4325 8.47636 6.64868C7.85591 7.76662 7.27045 8.70235 6.73591 9.42191C6.90773 9.40338 7.06364 9.36632 7.20045 9.33235C7.45818 9.26132 7.71909 9.15323 7.95773 9.00809C8.04364 8.95559 8.11364 8.91853 8.18364 8.91853C8.32045 8.91853 8.57818 9.00809 8.94091 9.19029C9.09682 9.29838 9.18273 9.425 9.18273 9.55162C9.18273 9.65971 9.13182 9.78632 9.02682 9.89441C8.89 10.0735 8.76909 10.2897 8.68318 10.58L8.44136 11.3551C8.61318 11.4818 8.71818 11.5899 8.71818 11.6609C8.71818 11.7504 8.66727 11.806 8.59727 11.806C8.25364 11.806 7.96091 11.8431 7.7 11.8956C6.83773 12.0407 6.42409 12.0932 6.42409 12.0932C6.38909 12.1118 6.37318 12.1118 6.35409 12.1118C6.52591 12.2199 6.63091 12.3279 6.63091 12.436C6.63091 12.4731 6.59591 12.5071 6.545 12.5812C6.30318 12.8869 6.18227 13.1401 6.16636 13.3563C6.16636 13.4088 6.20136 13.4274 6.28727 13.4274C7.18455 13.2482 7.66818 13.1556 7.77 13.1556C7.90682 13.1556 8.14864 13.2637 8.52727 13.4428C8.83591 13.6219 8.99182 13.7671 8.99182 13.9122C8.99182 14.0203 8.92182 14.1654 8.785 14.3446C8.61318 14.7213 8.49227 15.3328 8.38727 16.179ZM14.5091 18.6279C14.3882 18.6279 14.2864 18.5909 14.1973 18.5199C14.0605 18.4118 13.9205 18.2666 13.7486 18.069C13.37 17.6366 12.9023 17.1332 12.3168 16.5557C12.1959 16.7009 12.0909 16.809 12.005 16.9171C11.4864 17.4019 10.9709 17.7632 10.4364 17.9794C9.95273 18.1246 9.53909 18.2141 9.17636 18.2141C9.00455 18.2141 8.91864 18.1771 8.91864 18.1431C9.74591 17.7818 10.4014 17.3865 10.885 16.9171C11.1936 16.6299 11.4705 16.3056 11.7123 15.9813C11.1427 15.4594 10.5064 14.8634 9.78091 14.2149C9.74591 14.1778 9.73 14.1593 9.73 14.1253C9.59318 14.0882 9.52318 14.0172 9.52318 13.9091C9.52318 13.8721 9.64409 13.8381 9.92091 13.7825C10.8691 13.6034 11.6455 13.4026 12.25 13.1896C12.5268 13.0815 12.7145 13.0104 12.8195 13.0104C12.9055 13.0104 13.1282 13.1 13.4909 13.2451C13.8536 13.3903 14.0414 13.5509 14.0414 13.7146C14.0414 13.8041 13.9905 13.8937 13.8855 14.0018C13.6786 14.1809 13.5227 14.4156 13.3859 14.7028C13.2141 15.0981 13.0232 15.4594 12.8514 15.7466C12.9882 15.8547 13.1282 15.9443 13.2459 16.0184C13.7455 16.3982 14.1432 16.775 14.4518 17.1549C14.7095 17.4421 15.8582 16.9356 15.8582 17.1703C15.8645 17.6366 14.7318 18.6279 14.5091 18.6279ZM18.0791 10.9012C17.5286 11.0803 16.94 11.1729 16.3036 11.1729C15.7341 11.1729 15.3555 11.0834 15.1645 10.8672C14.6459 10.4349 14.0605 9.78632 13.405 8.92162C13.405 8.92162 12.7495 8.1125 11.4386 6.47265C11.025 5.93221 10.5605 5.55235 10.0418 5.33618C9.78409 5.24662 9.66318 5.12 9.66318 4.97485C9.66318 4.84824 9.905 4.77721 10.4045 4.77721C10.6814 4.77721 10.955 4.92235 11.2318 5.19103C11.4036 4.93779 11.5595 4.66912 11.6805 4.41588C11.8873 4.05456 12.0241 3.73029 12.11 3.44309C12.1259 3.35353 12.1609 3.29794 12.2118 3.29794C12.2818 3.29794 12.4536 3.3875 12.6955 3.55118C12.9532 3.76735 13.0932 3.93103 13.0932 4.00206C13.0932 4.11015 13.0423 4.18118 12.9564 4.23676C12.6127 4.52397 12.11 4.92235 11.4227 5.38868C11.8873 5.91059 12.32 6.36147 12.6986 6.75676C13.0073 6.46956 13.2841 6.16382 13.51 5.87353C13.8727 5.47824 14.1145 5.11691 14.2514 4.81118C14.2864 4.70309 14.3532 4.63206 14.4423 4.63206C14.5473 4.63206 14.735 4.74015 15.0468 4.91926C15.3555 5.19103 15.5305 5.37015 15.5305 5.47824C15.5305 5.58632 15.4445 5.65735 15.3077 5.73147C14.7891 6.05574 13.9809 6.45103 12.8927 6.9575C13.7741 7.87471 14.4105 8.47074 14.8241 8.75794C15.4095 9.19029 16.4977 9.69368 18.0823 10.2897C18.34 10.4163 18.48 10.5059 18.48 10.5429C18.4736 10.685 18.3368 10.7931 18.0791 10.9012Z" fill="#717171"/>
</svg>
