<svg width="24" height="24" viewBox="0 0 24 24" fill="none" xmlns="http://www.w3.org/2000/svg">
<path fill-rule="evenodd" clip-rule="evenodd" d="M10.8859 0.0496493C9.44191 0.177908 7.90173 0.631153 6.51344 1.33646C2.42588 3.41304 -0.141403 7.75068 0.00602929 12.3312C0.0647019 14.1552 0.459733 15.7344 1.26022 17.3456C2.81387 20.4726 5.63147 22.7485 9.03965 23.6295C11.4289 24.2471 14.0498 24.0882 16.36 23.1857C17.9986 22.5456 19.3592 21.6381 20.6199 20.3442C21.5796 19.3593 22.2172 18.4523 22.8034 17.2382C23.3612 16.0831 23.6947 15.016 23.8902 13.7615C24.0366 12.8213 24.0366 11.1846 23.8902 10.2444C23.6904 8.96236 23.3543 7.89779 22.7796 6.72723C22.2006 5.548 21.5505 4.62514 20.6248 3.66805C19.6363 2.64601 18.6651 1.93255 17.3805 1.28445C15.3585 0.264384 13.1647 -0.152704 10.8859 0.0496493ZM12.6598 4.0321C16.221 4.34701 19.1199 6.90614 19.845 10.3752C20.2826 12.4689 19.8235 14.76 18.6148 16.514C16.7807 19.1756 13.5191 20.4904 10.3768 19.8348C6.06109 18.9344 3.26734 14.6798 4.16662 10.3773C4.93265 6.71246 8.10117 4.09982 11.9122 3.99069C12.0283 3.98737 12.3647 4.00598 12.6598 4.0321ZM11.654 7.01869C10.8516 7.12955 10.0933 7.56164 9.63111 8.17133C8.81772 9.24425 8.80129 10.6797 9.58981 11.7762L9.75287 12.003L9.58981 12.2297C8.80129 13.3263 8.81772 14.7617 9.63111 15.8346C9.91537 16.2095 10.2451 16.4719 10.7211 16.7019C12.6405 17.6292 14.869 16.304 14.9955 14.1602C15.0352 13.4882 14.8297 12.7963 14.4223 12.2297L14.2592 12.003L14.4223 11.7762C15.3038 10.5504 15.1629 8.90599 14.0856 7.84541C13.4754 7.24472 12.4764 6.90506 11.654 7.01869ZM12.3027 9.05193C12.7275 9.16978 13.0216 9.62542 12.9819 10.1041C12.9064 11.0138 11.7198 11.3155 11.1888 10.5599C11.0005 10.2918 10.9633 9.85928 11.105 9.58401C11.3476 9.11252 11.7987 8.91214 12.3027 9.05193ZM12.4968 13.1449C13.0339 13.4365 13.1553 14.1922 12.7408 14.664C12.1068 15.3854 10.9498 14.8699 11.0302 13.9018C11.0894 13.1882 11.8519 12.7948 12.4968 13.1449Z" fill="#717171"/>
</svg>
